# xmcd
#
# Track frame offsets:
#	150
#	15968
#	28801
#	42811
#	56761
#	71799
#	89364
#	110132
#	126947
#	143642
#	157592
#	171085
#
# Disc length: 2487 seconds
#
# Revision: 1
# Processed by: cddbd v1.5.2PL0 Copyright (c) Steve Scherf et al.
# Submitted via: audiograbber 1.83.01
#
DISCID=9b09b50c
DTITLE=Ricky Skaggs - Love's Gonna Get Ya!
DYEAR=1986
DGENRE=Country
TTITLE0=Love's Gonna Get You Someday
TTITLE1=I'm Beside Myself
TTITLE2=I Wonder If I Care As Much
TTITLE3=Don't Stop Gypsy
TTITLE4=A Hard Road To Hoe
TTITLE5=I Won't Let You Donw
TTITLE6=Walkin' In Jerusalem
TTITLE7=Artificial Heart
TTITLE8=Love Can't Ever Get Better Than This
TTITLE9=Daddy Was A Hardworking, Honest Man
TTITLE10=Raisin' The Dickens
TTITLE11=New Star Shining
EXTD=
EXTT0=
EXTT1=
EXTT2=
EXTT3=
EXTT4=
EXTT5=
EXTT6=
EXTT7=
EXTT8=
EXTT9=
EXTT10=
EXTT11=
PLAYORDER=
